HIERARCHY
ROOT Hips
{
	OFFSET -0.089718 121.760773 1.256875
	CHANNELS 6 Xposition Yposition Zposition Xrotation Yrotation Zrotation 
	JOINT Spine
	{
		OFFSET 0.071961 7.257324 -0.789679
		CHANNELS 3 Xrotation Yrotation Zrotation
		JOINT Spine1
		{
			OFFSET 0.000000 12.508743 -0.658066
			CHANNELS 3 Xrotation Yrotation Zrotation
			JOINT Spine1_split
			{
				OFFSET 0.000000 12.508743 -0.658066
				CHANNELS 3 Xrotation Yrotation Zrotation
				JOINT Spine2
				{
					OFFSET 0.000000 12.508743 -0.658066
					CHANNELS 3 Xrotation Yrotation Zrotation
					JOINT Neck
					{
						OFFSET 0.000000 14.033295 7.520357
						CHANNELS 3 Xrotation Yrotation Zrotation
						JOINT Head
						{
							OFFSET 0.000000 8.198502 5.703135
							CHANNELS 3 Xrotation Yrotation Zrotation
							JOINT HeadTop_End
							{
								OFFSET 0.000000 17.760834 13.332673
								CHANNELS 3 Xrotation Yrotation Zrotation
								End Site
								{
									OFFSET 0.000000 0.000000 0.000000
								}
							}
						}
					}
					JOINT LeftShoulder
					{
						OFFSET 6.292447 5.785309 -0.668987
						CHANNELS 3 Xrotation Yrotation Zrotation
						JOINT LeftShoulder_split
						{
							OFFSET 6.292447 5.785309 -0.668987
							CHANNELS 3 Xrotation Yrotation Zrotation
							JOINT LeftArm
							{
								OFFSET 13.906050 -6.096512 1.965051
								CHANNELS 3 Xrotation Yrotation Zrotation
								JOINT LeftForeArm
								{
									OFFSET 34.136707 -0.070145 0.483191
									CHANNELS 3 Xrotation Yrotation Zrotation
									JOINT LeftHand
									{
										OFFSET 40.956070 -0.000046 0.579759
										CHANNELS 3 Xrotation Yrotation Zrotation
										JOINT LeftHandThumb1
										{
											OFFSET 9.870941 -7.205917 9.687083
											CHANNELS 3 Xrotation Yrotation Zrotation
											JOINT LeftHandThumb2
											{
												OFFSET 1.819832 -1.059479 1.085292
												CHANNELS 3 Xrotation Yrotation Zrotation
												JOINT LeftHandThumb3
												{
													OFFSET 2.094803 -1.219498 1.249332
													CHANNELS 3 Xrotation Yrotation Zrotation
													JOINT LeftHandThumb4
													{
														OFFSET 4.803749 -2.796570 2.864868
														CHANNELS 3 Xrotation Yrotation Zrotation
														End Site
														{
															OFFSET 0.000000 0.000000 0.000000
														}
													}
												}
											}
										}
										JOINT LeftHandIndex1
										{
											OFFSET 18.323029 -0.939438 4.853191
											CHANNELS 3 Xrotation Yrotation Zrotation
											JOINT LeftHandIndex2
											{
												OFFSET 4.710793 -0.000031 0.066666
												CHANNELS 3 Xrotation Yrotation Zrotation
												JOINT LeftHandIndex3
												{
													OFFSET 2.876877 -0.226105 0.045824
													CHANNELS 3 Xrotation Yrotation Zrotation
													JOINT LeftHandIndex4
													{
														OFFSET 6.145302 -0.000046 0.087005
														CHANNELS 3 Xrotation Yrotation Zrotation
														End Site
														{
															OFFSET 0.000000 0.000000 0.000000
														}
													}
												}
											}
										}
										JOINT LeftHandMiddle1
										{
											OFFSET 18.011223 0.000015 0.254925
											CHANNELS 3 Xrotation Yrotation Zrotation
											JOINT LeftHandMiddle2
											{
												OFFSET 4.946175 -0.000015 0.070024
												CHANNELS 3 Xrotation Yrotation Zrotation
												JOINT LeftHandMiddle3
												{
													OFFSET 3.341888 0.000015 0.047322
													CHANNELS 3 Xrotation Yrotation Zrotation
													JOINT LeftHandMiddle4
													{
														OFFSET 4.461334 -0.000031 0.063172
														CHANNELS 3 Xrotation Yrotation Zrotation
														End Site
														{
															OFFSET 0.000000 0.000000 0.000000
														}
													}
												}
											}
										}
										JOINT LeftHandRing1
										{
											OFFSET 15.906670 -0.087616 -3.901815
											CHANNELS 3 Xrotation Yrotation Zrotation
											JOINT LeftHandRing2
											{
												OFFSET 3.526680 -0.000031 0.049965
												CHANNELS 3 Xrotation Yrotation Zrotation
												JOINT LeftHandRing3
												{
													OFFSET 2.960831 -0.000015 0.041910
													CHANNELS 3 Xrotation Yrotation Zrotation
													JOINT LeftHandRing4
													{
														OFFSET 4.926727 -0.000031 0.069761
														CHANNELS 3 Xrotation Yrotation Zrotation
														End Site
														{
															OFFSET 0.000000 0.000000 0.000000
														}
													}
												}
											}
										}
										JOINT LeftHandPinky1
										{
											OFFSET 12.886803 -0.806839 -6.620516
											CHANNELS 3 Xrotation Yrotation Zrotation
											JOINT LeftHandPinky2
											{
												OFFSET 3.326813 0.000000 0.047121
												CHANNELS 3 Xrotation Yrotation Zrotation
												JOINT LeftHandPinky3
												{
													OFFSET 3.014618 -0.000031 0.042702
													CHANNELS 3 Xrotation Yrotation Zrotation
													JOINT LeftHandPinky4
													{
														OFFSET 5.847153 0.000031 0.082745
														CHANNELS 3 Xrotation Yrotation Zrotation
														End Site
														{
															OFFSET 0.000000 0.000000 0.000000
														}
													}
												}
											}
										}
									}
								}
							}
						}
					}
					JOINT RightShoulder
					{
						OFFSET -6.292447 5.785309 -0.668987
						CHANNELS 3 Xrotation Yrotation Zrotation
						JOINT RightShoulder_split
						{
							OFFSET -6.292447 5.785309 -0.668987
							CHANNELS 3 Xrotation Yrotation Zrotation
							JOINT RightArm
							{
								OFFSET -13.906046 -6.096527 1.965051
								CHANNELS 3 Xrotation Yrotation Zrotation
								JOINT RightForeArm
								{
									OFFSET -34.136711 -0.070145 0.483195
									CHANNELS 3 Xrotation Yrotation Zrotation
									JOINT RightHand
									{
										OFFSET -40.956062 -0.000031 0.579796
										CHANNELS 3 Xrotation Yrotation Zrotation
										JOINT RightHandThumb1
										{
											OFFSET -9.870895 -7.205978 9.687082
											CHANNELS 3 Xrotation Yrotation Zrotation
											JOINT RightHandThumb2
											{
												OFFSET -1.819832 -1.059479 1.085295
												CHANNELS 3 Xrotation Yrotation Zrotation
												JOINT RightHandThumb3
												{
													OFFSET -2.094826 -1.219513 1.249285
													CHANNELS 3 Xrotation Yrotation Zrotation
													JOINT RightHandThumb4
													{
														OFFSET -4.803757 -2.796585 2.864836
														CHANNELS 3 Xrotation Yrotation Zrotation
														End Site
														{
															OFFSET 0.000000 0.000000 0.000000
														}
													}
												}
											}
										}
										JOINT RightHandIndex1
										{
											OFFSET -18.323013 -0.939499 4.853236
											CHANNELS 3 Xrotation Yrotation Zrotation
											JOINT RightHandIndex2
											{
												OFFSET -4.710800 -0.000031 0.066705
												CHANNELS 3 Xrotation Yrotation Zrotation
												JOINT RightHandIndex3
												{
													OFFSET -2.876869 -0.226089 0.045846
													CHANNELS 3 Xrotation Yrotation Zrotation
													JOINT RightHandIndex4
													{
														OFFSET -6.145317 0.000000 0.087043
														CHANNELS 3 Xrotation Yrotation Zrotation
														End Site
														{
															OFFSET 0.000000 0.000000 0.000000
														}
													}
												}
											}
										}
										JOINT RightHandMiddle1
										{
											OFFSET -18.011230 -0.000031 0.254973
											CHANNELS 3 Xrotation Yrotation Zrotation
											JOINT RightHandMiddle2
											{
												OFFSET -4.946175 0.000000 0.069982
												CHANNELS 3 Xrotation Yrotation Zrotation
												JOINT RightHandMiddle3
												{
													OFFSET -3.341881 0.000000 0.047287
													CHANNELS 3 Xrotation Yrotation Zrotation
													JOINT RightHandMiddle4
													{
														OFFSET -4.461334 -0.000031 0.063116
														CHANNELS 3 Xrotation Yrotation Zrotation
														End Site
														{
															OFFSET 0.000000 0.000000 0.000000
														}
													}
												}
											}
										}
										JOINT RightHandRing1
										{
											OFFSET -15.906685 -0.087631 -3.901773
											CHANNELS 3 Xrotation Yrotation Zrotation
											JOINT RightHandRing2
											{
												OFFSET -3.526680 -0.000046 0.049887
												CHANNELS 3 Xrotation Yrotation Zrotation
												JOINT RightHandRing3
												{
													OFFSET -2.960831 0.000015 0.041926
													CHANNELS 3 Xrotation Yrotation Zrotation
													JOINT RightHandRing4
													{
														OFFSET -4.926727 -0.000061 0.069777
														CHANNELS 3 Xrotation Yrotation Zrotation
														End Site
														{
															OFFSET 0.000000 0.000000 0.000000
														}
													}
												}
											}
										}
										JOINT RightHandPinky1
										{
											OFFSET -12.886818 -0.806839 -6.620485
											CHANNELS 3 Xrotation Yrotation Zrotation
											JOINT RightHandPinky2
											{
												OFFSET -3.326813 -0.000015 0.047130
												CHANNELS 3 Xrotation Yrotation Zrotation
												JOINT RightHandPinky3
												{
													OFFSET -3.014618 0.000000 0.042665
													CHANNELS 3 Xrotation Yrotation Zrotation
													JOINT RightHandPinky4
													{
														OFFSET -5.847153 -0.000031 0.082798
														CHANNELS 3 Xrotation Yrotation Zrotation
														End Site
														{
															OFFSET 0.000000 0.000000 0.000000
														}
													}
												}
											}
										}
									}
								}
							}
						}
					}
				}
			}
		}
	}
	JOINT LeftUpLeg
	{
		OFFSET 13.026871 -6.336296 -1.092769
		CHANNELS 3 Xrotation Yrotation Zrotation
		JOINT LeftLeg
		{
			OFFSET 0.531735 -46.096748 9.782727
			CHANNELS 3 Xrotation Yrotation Zrotation
			JOINT LeftFoot
			{
				OFFSET -0.516061 -53.427502 -12.948194
				CHANNELS 3 Xrotation Yrotation Zrotation
				JOINT LeftToeBase
				{
					OFFSET 0.192221 -14.009666 16.364061
					CHANNELS 3 Xrotation Yrotation Zrotation
					JOINT LeftToe_End
					{
						OFFSET -1.784717 -0.561736 9.474806
						CHANNELS 3 Xrotation Yrotation Zrotation
						End Site
						{
							OFFSET 0.000000 0.000000 0.000000
						}
					}
				}
			}
		}
	}
	JOINT RightUpLeg
	{
		OFFSET -12.882952 -6.336288 -1.092769
		CHANNELS 3 Xrotation Yrotation Zrotation
		JOINT RightLeg
		{
			OFFSET -0.517510 -46.096909 9.782776
			CHANNELS 3 Xrotation Yrotation Zrotation
			JOINT RightFoot
			{
				OFFSET 0.532756 -53.427311 -12.948288
				CHANNELS 3 Xrotation Yrotation Zrotation
				JOINT RightToeBase
				{
					OFFSET -0.192224 -14.009682 16.364050
					CHANNELS 3 Xrotation Yrotation Zrotation
					JOINT RightToe_End
					{
						OFFSET 1.784716 -0.561743 9.474806
						CHANNELS 3 Xrotation Yrotation Zrotation
						End Site
						{
							OFFSET 0.000000 0.000000 0.000000
						}
					}
				}
			}
		}
	}
}
MOTION
Frames: 5
Frame Time: 0.016667
-3.309227 113.444656 2.047279 0.299292 -22.134490 -3.566170 -5.691441 25.259991 11.885041 3.997430 3.936052 -7.691240 0.000000 0.000000 0.000000 4.476293 3.961410 -7.425022 3.040561 -3.094700 4.070850 6.875136 -11.753985 7.892889 0.000001 -0.000000 0.000000 0.325192 0.835602 7.876355 0.000000 0.000000 0.000000 19.282879 3.730835 -26.142940 0.434202 -105.022566 0.449604 20.172296 -47.431374 25.581019 -1.548357 1.283541 6.053784 4.627186 17.348129 1.563725 -0.203970 6.253658 3.016249 0.000003 -0.000000 -0.000000 2.799751 4.902478 -46.463356 2.825246 5.019157 -41.980549 1.165695 2.557109 -27.677707 -0.000003 0.000000 0.000001 2.797864 4.901007 -46.447219 2.801900 4.904058 -46.487234 0.894492 2.739404 -23.182743 -0.000002 -0.000000 -0.000000 2.800518 4.903207 -46.463417 2.800214 4.901329 -46.471053 0.894528 2.739597 -23.182750 0.000000 -0.000001 -0.000000 5.744866 7.704949 -46.261472 2.824513 0.829695 -46.797222 0.893977 2.737577 -23.182707 -0.000005 0.000000 -0.000000 0.758278 1.963741 2.793604 0.000000 0.000000 0.000000 -22.179246 11.881333 67.546418 0.286682 112.125219 -0.309498 37.218517 -11.319542 41.451899 -1.838348 0.039527 -5.919357 6.028091 -26.101243 -1.502901 -0.556561 -8.558702 -3.019130 -0.000000 -0.000000 -0.000000 0.256032 -1.257265 10.162843 0.206892 -1.365627 5.669007 0.209076 -0.521334 9.573063 0.000003 0.000003 -0.000003 0.255960 -1.256890 10.162841 0.255987 -1.257268 10.162839 0.100039 -0.633722 5.080406 -0.000000 0.000002 0.000000 0.255935 -1.256715 10.162840 0.255961 -1.257327 10.162843 0.100144 -0.635203 5.079253 0.000001 0.000001 -0.000003 0.256020 -1.257194 10.162843 0.256090 -1.257572 10.162843 0.100134 -0.634055 5.080410 0.000000 0.000001 -0.000002 -12.132182 -0.518149 -2.634516 31.901522 10.254565 6.528679 -12.670656 6.699687 -3.381689 -11.032231 -0.000002 0.000001 -0.000000 0.000000 0.000000 -8.931107 -16.586747 8.148003 25.458784 10.358225 -1.580897 -14.224346 1.986944 -12.166163 -0.311403 0.000007 -0.000000 -0.000000 -0.000001 -0.000000 
-3.418137 113.220711 1.885664 0.977973 -23.603245 -1.667504 -5.699412 25.874746 11.259446 4.220426 3.950582 -8.490484 0.000000 0.000000 0.000000 4.749213 3.992887 -8.204204 2.987697 -2.928616 4.057882 6.667902 -11.048127 8.304521 0.000001 -0.000000 0.000000 0.327252 0.857189 7.510194 0.000000 0.000000 0.000000 15.710885 7.057142 -25.900185 0.490243 -103.369790 0.503882 20.020425 -47.613594 25.456853 -1.545159 1.471107 6.000986 4.627186 17.348129 1.563722 -0.203972 6.253660 3.016247 0.000002 0.000001 -0.000000 2.821506 4.918772 -46.681782 2.847850 5.035635 -42.202977 1.173464 2.568547 -27.788304 -0.000000 -0.000000 0.000001 2.819624 4.917319 -46.665642 2.824063 4.920640 -46.709601 0.901340 2.751394 -23.293327 0.000001 -0.000000 0.000001 2.822282 4.919497 -46.681843 2.822374 4.917915 -46.693424 0.901385 2.751592 -23.293334 -0.000000 0.000000 -0.000001 5.777462 7.710032 -46.481643 2.846675 0.846143 -47.018005 0.900846 2.749590 -23.293295 -0.000001 -0.000000 -0.000001 0.652812 1.559988 2.078557 0.000000 0.000000 0.000000 -23.465545 16.590721 68.647376 0.287676 112.051917 -0.310396 37.445344 -10.056717 43.284948 -1.838842 1.500334 -5.687994 5.872977 -24.048847 -1.380408 -0.637799 -7.535644 -2.913319 -0.000000 0.000000 -0.000000 0.256033 -1.257259 10.162846 0.206891 -1.365624 5.669004 0.209080 -0.521335 9.573062 -0.000001 -0.000001 -0.000002 0.255963 -1.256885 10.162843 0.255985 -1.257272 10.162837 0.100039 -0.633723 5.080406 -0.000002 0.000002 0.000001 0.255938 -1.256717 10.162840 0.255961 -1.257327 10.162843 0.100142 -0.635204 5.079252 0.000001 0.000001 -0.000001 0.256024 -1.257189 10.162844 0.256089 -1.257571 10.162841 0.100130 -0.634059 5.080408 -0.000001 -0.000002 -0.000001 -11.314523 0.198791 -3.293669 30.299368 10.140895 4.445589 -15.016089 7.472402 -1.480936 -8.142663 0.000007 -0.000000 0.000000 0.000000 0.000000 -11.173971 -16.939231 7.317821 27.788707 9.185214 -3.348118 -14.931699 4.281158 -13.927878 -2.556148 -0.000006 0.000005 -0.000000 -0.000001 -0.000000 
-3.461694 113.070740 1.710081 1.693047 -24.600275 0.221641 -5.714065 26.038221 10.723037 4.475672 3.888727 -9.274567 0.000000 0.000000 0.000000 5.047280 3.947508 -8.970705 2.899904 -2.740073 4.005312 6.479660 -10.247166 8.642149 0.000001 -0.000000 0.000000 0.367763 0.793788 6.915262 0.000000 0.000000 0.000000 11.508498 10.024072 -25.778758 0.565985 -101.632143 0.577773 19.990707 -47.808462 25.378514 -1.542113 1.631016 5.955593 4.627183 17.348126 1.563722 -0.203972 6.253659 3.016247 -0.000002 -0.000000 0.000001 2.825131 4.921482 -46.718057 2.851443 5.038247 -42.238218 1.174701 2.570331 -27.805808 -0.000000 0.000000 0.000000 2.823239 4.920031 -46.701914 2.827589 4.923257 -46.744848 0.902436 2.753287 -23.310823 0.000000 0.000000 0.000000 2.825914 4.922210 -46.718132 2.825877 4.920517 -46.728654 0.902469 2.753489 -23.310836 -0.000002 0.000000 -0.000000 5.782874 7.710854 -46.518199 2.850199 0.848738 -47.052996 0.901921 2.751473 -23.310802 0.000001 0.000000 0.000000 0.538050 0.995599 1.410166 0.000000 0.000000 0.000000 -24.496284 21.387718 69.121023 0.289199 111.950919 -0.311822 37.265649 -8.974110 44.362109 -1.844295 2.806179 -5.480979 5.738233 -22.291241 -1.272213 -0.708746 -6.659501 -2.821708 0.000000 0.000000 0.000001 0.256031 -1.257269 10.162846 0.206889 -1.365623 5.669007 0.209076 -0.521332 9.573065 0.000000 0.000000 0.000002 0.255963 -1.256884 10.162844 0.255986 -1.257273 10.162840 0.100042 -0.633722 5.080411 -0.000001 -0.000003 0.000001 0.255936 -1.256720 10.162842 0.255961 -1.257327 10.162840 0.100143 -0.635202 5.079251 -0.000000 -0.000001 0.000003 0.256020 -1.257197 10.162847 0.256087 -1.257572 10.162842 0.100131 -0.634056 5.080406 -0.000001 -0.000001 -0.000001 -10.616638 0.830116 -4.067458 28.613390 10.017577 2.683659 -16.757992 7.705409 0.207619 -5.751719 -0.000001 0.000000 0.000000 0.000001 -0.000000 -15.138296 -16.496853 5.480893 31.448148 9.207927 -4.534233 -11.915337 4.830435 -11.605934 -6.546770 -0.000008 0.000000 -0.000000 0.000002 0.000000 
-3.443311 112.955475 1.531142 2.316236 -25.092734 1.988285 -5.576063 25.794974 10.306814 4.668289 3.770795 -10.047022 0.000000 0.000000 0.000000 5.276398 3.841544 -9.734972 2.826789 -2.552325 3.939367 6.357959 -9.443909 8.899217 -0.000000 -0.000000 0.000000 0.452092 0.628426 6.097584 0.000000 0.000000 0.000000 6.801211 12.552790 -25.783034 0.668437 -99.887521 0.678419 20.093003 -48.011158 25.382446 -1.539510 1.748077 5.919094 4.627184 17.348127 1.563725 -0.203970 6.253659 3.016246 -0.000001 -0.000000 0.000001 2.804951 4.906392 -46.515678 2.830473 5.022998 -42.032127 1.167490 2.559759 -27.703334 -0.000001 0.000000 0.000000 2.803075 4.904927 -46.499542 2.807014 4.907897 -46.538785 0.896076 2.742197 -23.208395 -0.000000 -0.000000 -0.000001 2.805731 4.907122 -46.515747 2.805335 4.905178 -46.522611 0.896109 2.742381 -23.208380 -0.000000 0.000000 0.000000 5.752671 7.706187 -46.314201 2.829628 0.833489 -46.848394 0.895569 2.740377 -23.208346 0.000001 0.000000 -0.000000 0.421122 0.305508 0.818301 0.000000 0.000000 0.000000 -24.891583 26.077401 68.758708 0.288683 111.984360 -0.311321 36.877390 -8.284572 44.523056 -1.853702 4.031083 -5.286423 5.619676 -20.765279 -1.175739 -0.771389 -5.898880 -2.741413 0.000000 0.000001 -0.000000 0.256034 -1.257265 10.162845 0.206891 -1.365621 5.669006 0.209074 -0.521332 9.573068 0.000002 0.000002 -0.000003 0.255964 -1.256889 10.162843 0.255985 -1.257271 10.162841 0.100039 -0.633724 5.080410 0.000001 -0.000000 0.000000 0.255938 -1.256717 10.162841 0.255961 -1.257327 10.162845 0.100143 -0.635208 5.079252 -0.000000 0.000003 0.000000 0.256021 -1.257197 10.162845 0.256085 -1.257572 10.162842 0.100132 -0.634058 5.080410 0.000000 0.000000 0.000002 -10.036780 1.195315 -4.941988 27.042445 9.883491 1.291026 -17.891921 7.647737 1.443309 -3.947315 -0.000000 -0.000001 -0.000000 -0.000001 0.000000 -19.296401 -15.347701 3.473780 34.956225 9.231515 -5.249627 -7.329932 5.118557 -8.465287 -12.254645 -0.000004 0.000001 0.000000 -0.000001 0.000000 
-3.363178 112.758537 1.331445 2.761254 -25.026325 3.521293 -5.207506 25.155527 9.993895 4.744227 3.610756 -10.783591 0.000000 0.000000 0.000000 5.379334 3.685724 -10.476551 2.798255 -2.383758 3.886516 6.281926 -8.716024 9.096370 -0.000000 0.000000 -0.000000 0.582199 0.347903 5.071558 0.000000 0.000000 0.000000 1.750900 14.571285 -25.913897 0.807265 -98.213011 0.815464 20.299961 -48.216071 25.471787 -1.537507 1.817501 5.890796 4.627184 17.348132 1.563721 -0.203975 6.253662 3.016241 0.000000 0.000001 -0.000003 2.754302 4.868014 -46.005238 2.778347 4.984506 -41.517247 1.149565 2.533262 -27.447341 0.000000 -0.000000 0.000000 2.752432 4.866530 -45.989108 2.755957 4.869232 -46.024055 0.880289 2.714364 -22.952405 0.000001 -0.000000 0.000000 2.755065 4.868748 -46.005303 2.754270 4.866485 -46.007847 0.880314 2.714565 -22.952427 0.000003 0.000000 0.000000 5.676567 7.693896 -45.799687 2.778530 0.795105 -46.337267 0.879778 2.712529 -22.952374 0.000000 -0.000000 0.000000 0.305672 -0.473590 0.300424 0.000000 0.000000 0.000000 -24.388461 30.434087 67.427081 0.284799 112.251973 -0.307752 36.505742 -8.137486 43.795989 -1.867163 5.244520 -5.093154 5.513332 -19.413616 -1.088258 -0.827722 -5.225067 -2.669660 -0.000001 -0.000001 -0.000001 0.256031 -1.257267 10.162844 0.206891 -1.365621 5.669007 0.209075 -0.521336 9.573067 0.000000 0.000000 0.000001 0.255963 -1.256886 10.162844 0.255983 -1.257275 10.162841 0.100040 -0.633723 5.080410 -0.000001 -0.000001 0.000001 0.255936 -1.256718 10.162841 0.255959 -1.257326 10.162844 0.100144 -0.635202 5.079252 0.000000 0.000000 0.000000 0.256020 -1.257199 10.162845 0.256090 -1.257569 10.162843 0.100132 -0.634057 5.080408 0.000001 0.000000 0.000000 -9.758272 1.162781 -5.794610 26.015728 9.736999 0.147867 -18.602276 7.471663 2.189419 -2.733606 0.000001 0.000001 -0.000000 0.000000 -0.000000 -22.701915 -14.046397 1.899847 37.936407 9.118856 -5.660409 -3.814825 5.587005 -7.698187 -16.538975 0.000004 -0.000001 0.000000 0.000000 0.000000 
